<svg id="Layer_1" enable-background="new 0 0 128 128" height="512" viewBox="0 0 128 128" width="512" xmlns="http://www.w3.org/2000/svg"><g><g><path d="m113.24 103.803c-.625-.625-1.498-.906-2.355-.863v-73.723c.055.003.108.016.163.016.828 0 1.606-.322 2.191-.908l2.134-2.134c1.209-1.208 1.209-3.175 0-4.383l-4.489-4.49v-3.88c0-1.709-1.39-3.099-3.099-3.099h-3.88l-2.819-2.819c-1.21-1.209-3.176-1.207-4.383.001l-2.133 2.133c-.205.205-.364.439-.502.685h-56.009c-.138-.245-.297-.48-.502-.684l-2.134-2.135c-1.209-1.209-3.175-1.207-4.383.001l-2.819 2.819h-3.88c-1.709 0-3.099 1.39-3.099 3.099v3.88l-4.489 4.489c-1.209 1.208-1.209 3.175 0 4.383l2.134 2.134c.585.585 1.364.908 2.191.908.055 0 .108-.013.163-.016v73.723c-.857-.043-1.73.238-2.355.863l-2.134 2.134c-1.209 1.208-1.209 3.175 0 4.383l4.489 4.49v3.88c0 1.709 1.39 3.099 3.099 3.099h3.88l2.819 2.819c.604.604 1.398.906 2.191.906.794 0 1.588-.302 2.192-.906l2.134-2.134c.205-.205.364-.439.502-.685h56.009c.138.245.297.48.502.684l2.134 2.135c.604.604 1.398.906 2.191.906.794 0 1.588-.302 2.192-.906l2.819-2.818h3.88c1.709 0 3.099-1.39 3.099-3.099v-3.88l4.489-4.489c1.209-1.208 1.209-3.175 0-4.383z" fill="#e6e7e8"/></g><g><path d="m103.719 7.239h-83.577c-1.105 0-2 .895-2 2v105.384c0 1.104.895 2 2 2h83.577c1.105 0 2-.896 2-2v-105.384c0-1.104-.895-2-2-2z" fill="#6dc9f7"/><g><path d="m103.653 7.239h-83.445c-1.141 0-2.066.925-2.066 2.066v3.099c0-1.141.925-2.066 2.066-2.066h83.445c1.141 0 2.066.925 2.066 2.066v-3.098c0-1.142-.925-2.067-2.066-2.067z" fill="#fff"/></g><path d="m93.794 18.384h-63.727c-.552 0-1 .448-1 1v85.094c0 .552.448 1 1 1h63.727c.552 0 1-.448 1-1v-85.094c0-.552-.448-1-1-1z" fill="#d4fbff"/><g fill="#ffd7e5"><g><path d="m110.558 18.452-14.381-14.381c-.781-.781-2.047-.781-2.828 0l-2.228 2.228c-.781.781-.781 2.047 0 2.828l14.381 14.381c.781.781 2.047.781 2.828 0l2.228-2.228c.781-.78.781-2.047 0-2.828z"/><path d="m32.741 6.299-2.228-2.228c-.781-.781-2.047-.781-2.828 0l-14.382 14.381c-.781.781-.781 2.047 0 2.828l2.228 2.228c.781.781 2.047.781 2.828 0l14.382-14.38c.781-.781.781-2.048 0-2.829z"/></g><g><path d="m32.741 114.734-14.381-14.38c-.781-.781-2.047-.781-2.828 0l-2.228 2.228c-.781.781-.781 2.047 0 2.828l14.381 14.381c.781.781 2.047.781 2.828 0l2.228-2.228c.781-.781.781-2.047 0-2.829z"/><path d="m110.558 102.582-2.228-2.228c-.781-.781-2.047-.781-2.828 0l-14.381 14.381c-.781.781-.781 2.047 0 2.828l2.228 2.228c.781.781 2.047.781 2.828 0l14.381-14.381c.781-.781.781-2.047 0-2.828z"/></g></g><path d="m69.354 68.479c4.656-2.239 8.15-6.516 9.329-11.666.223.066.449.109.677.109 1.784 0 3.181-1.841 3.181-4.191 0-2.002-1.015-3.63-2.419-4.07v-13.115c0-2.942-2.048-5.4-4.795-6.041.371-.367.705-.804.939-1.328 1.32-2.958-1.342-5.171-1.937-5.171-.543 0-.353.985-2.34 2.304-1.994 1.324-3.822 1.475-3.822 1.475s-5.506-3.781-11.634-2.749c-4.397.74-7.691 4.065-9.206 5.889-2.115.99-3.584 3.131-3.584 5.621v13.114c-1.403.439-2.419 2.067-2.419 4.07 0 2.35 1.397 4.191 3.181 4.191.228 0 .454-.043.677-.109 1.179 5.15 4.673 9.427 9.329 11.666-10.671 1.452-18.923 10.618-18.923 21.681v7.9c0 .934.757 1.691 1.691 1.691h49.309c.934 0 1.691-.757 1.691-1.691v-7.9c-.003-11.062-8.255-20.228-18.925-21.68z" fill="#0089ef"/><g><g><path d="m51.626 41.661c0-1.308.42-2.634 1.26-3.977.841-1.344 2.067-2.455 3.679-3.337 1.611-.881 3.492-1.323 5.641-1.323 1.998 0 3.76.369 5.29 1.106 1.529.737 2.71 1.739 3.544 3.006.834 1.268 1.25 2.645 1.25 4.133 0 1.171-.237 2.198-.712 3.079-.476.881-1.041 1.643-1.695 2.284s-1.828 1.719-3.523 3.234c-.469.427-.844.802-1.127 1.125-.282.324-.493.62-.631.889-.138.268-.244.537-.32.806s-.19.74-.341 1.416c-.261 1.433-1.081 2.148-2.459 2.148-.716 0-1.319-.234-1.808-.702-.489-.469-.733-1.164-.733-2.087 0-1.157.179-2.159.537-3.007s.834-1.591 1.426-2.232 1.391-1.402 2.397-2.284c.881-.772 1.52-1.354 1.912-1.746.392-.393.723-.831.992-1.313.269-.481.402-1.005.402-1.569 0-1.103-.41-2.033-1.229-2.79-.819-.758-1.877-1.137-3.172-1.137-1.515 0-2.632.382-3.347 1.147-.718.765-1.323 1.89-1.819 3.379-.468 1.557-1.357 2.334-2.666 2.334-.772 0-1.423-.271-1.953-.816-.53-.542-.795-1.132-.795-1.766zm10.084 22.648c-.841 0-1.574-.272-2.2-.817-.627-.544-.94-1.305-.94-2.284 0-.868.303-1.598.908-2.19.607-.592 1.35-.888 2.232-.888.868 0 1.598.296 2.191.888.592.592.888 1.322.888 2.19 0 .965-.31 1.723-.93 2.273-.619.553-1.336.828-2.149.828z" fill="#fa759e"/><g fill="#3a2c60"><path d="m105.719 43.637c-.552 0-1 .448-1 1v9.89c0 .552.448 1 1 1s1-.448 1-1v-9.89c0-.553-.447-1-1-1z"/><path d="m109.037 99.646c-.635-.635-1.485-.912-2.317-.858v-39.957c0-.552-.448-1-1-1s-1 .448-1 1v40.89l-14.306 14.306c-.451.451-.724 1.011-.827 1.596h-55.312c-.103-.585-.376-1.145-.827-1.596l-14.306-14.306v-75.58l14.305-14.306c.451-.451.724-1.011.827-1.596h55.312c.103.585.376 1.145.827 1.596l14.306 14.306v16.094c0 .552.448 1 1 1s1-.448 1-1v-15.161c.065.004.13.019.196.019.769 0 1.537-.292 2.122-.877l2.229-2.228c1.169-1.17 1.169-3.073 0-4.243l-4.545-4.545v-3.894c0-1.691-1.375-3.066-3.066-3.066h-3.894l-2.875-2.875c-1.171-1.171-3.074-1.17-4.243 0l-2.228 2.228c-.196.196-.347.417-.477.647h-56.014c-.13-.23-.281-.451-.477-.647l-2.227-2.228c-1.17-1.17-3.073-1.171-4.243 0l-2.875 2.875h-3.894c-1.691 0-3.066 1.375-3.066 3.066v3.894l-4.546 4.546c-1.169 1.17-1.169 3.073 0 4.243l2.228 2.229c.585.584 1.353.876 2.122.876.066 0 .13-.014.196-.019v73.714c-.833-.054-1.683.224-2.317.859l-2.229 2.228c-1.169 1.17-1.169 3.073 0 4.243l4.545 4.546v3.894c0 1.691 1.375 3.066 3.066 3.066h3.894l2.875 2.875c.585.584 1.353.876 2.121.876.769 0 1.537-.292 2.122-.877l2.228-2.228c.196-.196.347-.417.477-.647h56.013c.13.23.281.451.477.647l2.228 2.229c.585.584 1.353.876 2.121.876.769 0 1.537-.292 2.122-.877l2.875-2.875h3.894c1.691 0 3.066-1.375 3.066-3.066v-3.894l4.546-4.546c1.169-1.17 1.169-3.073 0-4.243zm-5.384-91.407c.588 0 1.066.479 1.066 1.066v1.895l-2.961-2.961zm-11.825-1.233 2.228-2.228c.39-.39 1.025-.39 1.415 0l14.38 14.38c.39.39.39 1.024 0 1.415l-2.228 2.228c-.39.39-1.025.39-1.415 0l-14.38-14.38c-.39-.39-.39-1.025 0-1.415zm-72.686 2.3c0-.588.479-1.066 1.066-1.066h1.894l-2.961 2.96v-1.894zm-2.904 13.496-2.228-2.228c-.39-.39-.39-1.024 0-1.415l14.381-14.38c.195-.195.451-.292.708-.292.256 0 .512.098.707.292l2.228 2.228c.39.39.39 1.024 0 1.415l-14.38 14.38c-.39.39-1.025.389-1.416 0zm3.97 92.821c-.588 0-1.066-.479-1.066-1.066v-1.894l2.96 2.96zm11.825 1.233-2.228 2.228c-.39.391-1.025.39-1.415 0l-14.38-14.381c-.39-.39-.39-1.024 0-1.415l2.228-2.228c.195-.195.451-.292.707-.292s.513.097.708.292l14.38 14.381c.39.39.39 1.025 0 1.415zm72.686-2.299c0 .588-.479 1.066-1.066 1.066h-1.894l2.96-2.96zm5.132-9.854-14.381 14.38c-.389.391-1.024.39-1.415 0l-2.228-2.228c-.39-.39-.39-1.024 0-1.415l14.38-14.381c.389-.391 1.024-.39 1.415 0l2.228 2.228c.39.392.39 1.026.001 1.416z"/><path d="m34.585 90.159v7.899c0 1.484 1.208 2.691 2.691 2.691h49.309c1.484 0 2.691-1.208 2.691-2.691v-7.899c0-10.476-7.195-19.561-17.127-22.146 3.503-2.399 6.119-5.999 7.281-10.092 2.31-.046 4.109-2.31 4.109-5.19 0-2.103-.947-3.903-2.419-4.723v-12.462c0-2.859-1.653-5.372-4.161-6.531.08-.141.153-.284.218-.43.707-1.585.576-3.26-.37-4.717-.601-.925-1.646-1.862-2.481-1.862-.778 0-1.131.573-1.343.916-.232.376-.55.892-1.55 1.556-1.282.851-2.494 1.16-3.044 1.264-1.342-.833-6.389-3.639-12.025-2.691-4.553.766-7.964 4.058-9.67 6.069-2.41 1.223-3.955 3.72-3.955 6.426v12.461c-1.473.819-2.419 2.619-2.419 4.723 0 2.881 1.799 5.145 4.11 5.19 1.163 4.093 3.778 7.692 7.281 10.092-9.931 2.586-17.126 11.672-17.126 22.147zm20.057-20.69c.438-.06.784-.399.853-.835s-.157-.866-.555-1.057c-4.413-2.122-7.698-6.229-8.787-10.987-.062-.269-.231-.5-.469-.64-.155-.091-.33-.137-.505-.137-.095 0-.189.013-.282.041-.156.046-.285.068-.395.068-1.203 0-2.181-1.432-2.181-3.191 0-1.518.707-2.799 1.718-3.115.417-.131.702-.517.702-.955v-13.115c0-2.009 1.181-3.86 3.008-4.715.133-.063.251-.153.345-.267 1.477-1.777 4.559-4.861 8.604-5.541 5.637-.95 10.851 2.552 10.903 2.588.19.129.418.192.647.171.085-.007 2.109-.189 4.293-1.639 1.124-.746 1.667-1.436 1.976-1.902.287.251.661.676.899 1.257.301.736.28 1.5-.064 2.271-.164.366-.402.701-.729 1.024-.259.256-.358.633-.259.983.099.351.381.62.735.702 2.368.553 4.022 2.636 4.022 5.067v13.114c0 .437.284.824.701.954 1.011.317 1.718 1.598 1.718 3.116 0 1.759-.979 3.191-2.181 3.191-.11 0-.239-.022-.395-.068-.263-.078-.549-.043-.787.097-.238.139-.408.371-.469.64-1.089 4.758-4.374 8.866-8.787 10.987-.398.191-.624.621-.555 1.057s.416.775.853.835c10.294 1.401 18.057 10.296 18.057 20.69v7.899c0 .381-.31.691-.691.691h-49.309c-.381 0-.691-.31-.691-.691v-7.899c0-10.393 7.763-19.287 18.057-20.689z"/><path d="m57.989 42.225c.447-1.343.985-2.355 1.601-3.012.515-.55 1.395-.83 2.617-.83 1.044 0 1.859.285 2.493.871.611.564.908 1.237.908 2.055 0 .396-.09.75-.276 1.083-.221.397-.499.765-.825 1.092-.366.366-.993.938-1.864 1.701-1.027.9-1.859 1.693-2.472 2.357-.669.724-1.212 1.572-1.613 2.521-.408.967-.615 2.11-.615 3.396 0 1.202.351 2.147 1.042 2.81.535.512 1.17.825 1.895.935-.797.148-1.501.516-2.1 1.099-.802.785-1.209 1.762-1.209 2.905 0 1.278.432 2.3 1.284 3.038.811.705 1.771 1.063 2.856 1.063 1.062 0 2.009-.363 2.813-1.079.84-.745 1.267-1.762 1.267-3.021 0-1.139-.397-2.113-1.182-2.898-.64-.639-1.407-1.021-2.285-1.14 1.397-.276 2.309-1.273 2.595-2.851.146-.651.255-1.105.328-1.363.058-.205.141-.414.247-.621.1-.194.267-.426.494-.687.258-.295.61-.646 1.04-1.038 1.689-1.51 2.886-2.608 3.557-3.265.723-.708 1.354-1.557 1.875-2.524.552-1.024.832-2.22.832-3.553 0-1.68-.476-3.256-1.414-4.684-.932-1.415-2.259-2.543-3.945-3.356-1.661-.8-3.587-1.206-5.724-1.206-2.307 0-4.366.486-6.12 1.446-1.757.96-3.119 2.199-4.048 3.684-.937 1.499-1.412 3.015-1.412 4.508 0 .903.363 1.733 1.079 2.464.722.742 1.621 1.119 2.669 1.119 1.233 0 2.864-.529 3.612-3.019zm5.205 17.501c.406.406.595.877.595 1.483 0 .682-.188 1.166-.595 1.526-.892.794-2.166.752-3.029.001-.255-.221-.595-.621-.595-1.528 0-.601.193-1.07.606-1.474.423-.412.91-.604 1.534-.604.605.001 1.077.19 1.484.596zm-8.819-16.482c-.502 0-.895-.163-1.237-.515-.344-.351-.511-.701-.511-1.068 0-1.112.373-2.272 1.107-3.447.745-1.19 1.859-2.196 3.312-2.99 1.457-.797 3.193-1.201 5.161-1.201 1.834 0 3.468.339 4.856 1.007 1.356.653 2.414 1.546 3.143 2.654.73 1.111 1.085 2.283 1.085 3.584 0 .998-.199 1.875-.592 2.604-.425.789-.935 1.477-1.514 2.044-.649.635-1.823 1.713-3.498 3.209-.492.449-.898.855-1.207 1.208-.339.39-.59.747-.766 1.089-.167.325-.299.658-.393.992-.079.279-.198.768-.363 1.508-.2 1.102-.734 1.327-1.475 1.327-.459 0-.814-.135-1.116-.424-.282-.27-.425-.729-.425-1.365 0-1.018.154-1.898.458-2.617.311-.735.728-1.389 1.24-1.942.566-.612 1.347-1.356 2.321-2.21.917-.803 1.558-1.389 1.961-1.792.458-.458.847-.974 1.156-1.531.352-.628.53-1.321.53-2.058 0-1.388-.522-2.573-1.55-3.523-1.005-.931-2.301-1.403-3.851-1.403-1.797 0-3.169.492-4.077 1.462-.825.88-1.492 2.105-2.047 3.775-.43 1.43-1.105 1.623-1.708 1.623z"/></g></g></g></g></g></svg>